<?xml version="1.0" encoding="iso-8859-1"?>
<!-- Generator: Adobe Illustrator 18.1.1, SVG Export Plug-In . SVG Version: 6.00 Build 0)  -->
<svg version="1.1" id="Capa_1" xmlns="http://www.w3.org/2000/svg" xmlns:xlink="http://www.w3.org/1999/xlink" x="0px" y="0px"
	 viewBox="0 0 372.574 372.574" style="enable-background:new 0 0 372.574 372.574;" xml:space="preserve">
<g>
	<g>
		<g>
			<path style="fill:#010002;" d="M338.759,111.08h-0.029c0-38.948-67.999-85.994-152.44-85.994
				c-84.462,0-152.475,47.032-152.475,85.994v8.633h304.943V111.08L338.759,111.08z M52.998,102.411
				c10.66-26.474,66.297-59.971,133.307-59.971c66.975,0,122.649,33.497,133.295,59.971H52.998z"/>
			<path style="fill:#010002;" d="M33.802,261.515c0,27.899,0,85.974,91.776,85.974c1.158,0,116.167-0.015,118.032-0.072
				c95.136-2.258,95.136-56.688,95.136-85.901v-8.683H33.802V261.515z M321.321,270.199c-0.652,27.784-7.41,58.215-78.094,59.908
				c-2.753,0.029-112.023,0.056-117.664,0.056c-63.191,0-73.095-27.448-74.282-59.964H321.321z"/>
			<path style="fill:#010002;" d="M261.777,134.087c-6.167-4.705-13.842-10.56-28.204-10.56c-14.362,0-22.037,5.855-28.204,10.56
				c-5.477,4.179-9.803,7.479-19.087,7.479c-9.282,0-13.608-3.3-19.085-7.479c-6.166-4.705-13.841-10.56-28.203-10.56
				c-14.361,0-22.036,5.855-28.202,10.56c-5.476,4.179-9.803,7.479-19.084,7.479c-9.282,0-13.608-3.3-19.085-7.479
				c-6.166-4.705-13.841-10.56-28.203-10.56v15.032c9.282,0,13.608,3.301,19.085,7.479c6.166,4.705,13.841,10.56,28.203,10.56
				c14.361,0,22.036-5.855,28.202-10.56c5.476-4.178,9.803-7.479,19.084-7.479c9.282,0,13.608,3.301,19.085,7.479
				c6.166,4.705,13.841,10.56,28.203,10.56c14.362,0,22.037-5.855,28.204-10.559c5.477-4.179,9.803-7.479,19.087-7.479
				s13.61,3.301,19.087,7.479c6.167,4.704,13.843,10.559,28.204,10.559s22.037-5.855,28.204-10.559
				c5.477-4.179,9.804-7.479,19.087-7.479v-15.032c-14.362,0-22.037,5.855-28.204,10.56c-5.477,4.179-9.804,7.479-19.087,7.479
				C271.58,141.566,267.254,138.266,261.777,134.087z"/>
			<path style="fill:#010002;" d="M332.9,163.029l-293.429,0.159C17.593,163.231-0.077,181.022,0,202.851
				c0.043,21.871,17.812,39.548,39.654,39.492l293.429,0.098c21.871-0.071,39.576-18.666,39.491-40.537
				C372.518,180.088,354.756,162.972,332.9,163.029z M338.07,220.426c-15.365,0-23.577-6.263-30.176-11.297
				c-5.86-4.471-10.489-8.002-20.421-8.002c-9.933,0-14.561,3.531-20.421,8.002c-6.598,5.034-14.81,11.297-30.176,11.297
				c-15.365,0-23.577-6.263-30.174-11.297c-5.86-4.471-10.489-8.002-20.42-8.002s-14.56,3.531-20.419,8.002
				c-6.598,5.034-14.808,11.297-30.174,11.297c-15.365,0-23.576-6.263-30.174-11.297c-5.859-4.471-10.487-8.002-20.418-8.002
				s-14.559,3.531-20.419,8.002c-6.598,5.034-14.808,11.297-30.174,11.297v-16.082c9.931,0,14.559-3.53,20.419-8.001
				c6.598-5.034,14.808-11.298,30.174-11.298c15.365,0,23.576,6.265,30.174,11.298c5.859,4.47,10.487,8.001,20.418,8.001
				s14.559-3.53,20.419-8.001c6.597-5.034,14.808-11.298,30.174-11.298s23.577,6.265,30.175,11.298
				c5.86,4.471,10.488,8.002,20.42,8.002c9.932,0,14.561-3.53,20.421-8.002c6.598-5.033,14.81-11.298,30.175-11.298
				c15.366,0,23.577,6.265,30.176,11.298c5.86,4.471,10.489,8.002,20.421,8.002L338.07,220.426L338.07,220.426z"/>
		</g>
	</g>
</g>
<g>
</g>
<g>
</g>
<g>
</g>
<g>
</g>
<g>
</g>
<g>
</g>
<g>
</g>
<g>
</g>
<g>
</g>
<g>
</g>
<g>
</g>
<g>
</g>
<g>
</g>
<g>
</g>
<g>
</g>
</svg>
